<?xml version="1.0" standalone="no"?>
<!DOCTYPE svg PUBLIC "-//W3C//DTD SVG 20010904//EN"
 "http://www.w3.org/TR/2001/REC-SVG-20010904/DTD/svg10.dtd">
<svg version="1.0" xmlns="http://www.w3.org/2000/svg"
 width="200.000000pt" height="200.000000pt" viewBox="0 0 200.000000 200.000000"
 preserveAspectRatio="xMidYMid meet">
<metadata>
Created by potrace 1.11, written by Peter Selinger 2001-2013
</metadata>
<g transform="translate(0.000000,200.000000) scale(0.100000,-0.100000)"
fill="#000000" stroke="none">
<path d="M610 1788 c-69 -38 -160 -88 -204 -112 l-78 -43 -99 -161 c-54 -89
-97 -162 -94 -162 2 0 24 11 47 24 24 13 129 70 233 126 105 56 223 120 262
142 l73 39 42 -24 c24 -13 84 -45 133 -72 50 -26 95 -51 100 -55 33 -24 368
-200 372 -196 6 6 8 205 2 210 -2 2 -40 22 -84 46 -44 23 -102 55 -130 70 -27
15 -79 43 -115 62 -36 20 -124 67 -197 107 -72 39 -133 71 -135 70 -1 -1 -59
-32 -128 -71z"/>
<path d="M857 1845 c10 -6 81 -45 158 -85 77 -40 163 -85 190 -100 28 -15 92
-49 143 -76 68 -36 92 -54 93 -69 1 -11 2 -168 3 -350 2 -181 4 -333 4 -338 2
-9 173 80 187 98 6 8 10 143 10 364 l0 353 -80 42 c-44 23 -136 72 -205 108
l-125 66 -198 0 c-158 -1 -194 -3 -180 -13z"/>
<path d="M711 1549 c-19 -12 -69 -39 -110 -62 -42 -22 -150 -81 -241 -131 -91
-50 -186 -102 -212 -116 l-48 -25 0 -227 0 -226 77 -124 c42 -68 87 -141 100
-163 l23 -40 0 335 0 335 143 79 c159 89 185 103 312 171 157 84 183 100 187
110 3 9 -166 104 -187 105 -5 0 -25 -10 -44 -21z"/>
<path d="M1700 1203 l0 -331 -157 -90 c-150 -85 -422 -234 -470 -256 -13 -6
-23 -13 -23 -16 0 -3 44 -28 98 -57 l97 -51 50 29 c28 15 57 31 65 35 8 4 49
26 90 49 41 23 118 65 170 92 52 28 136 74 185 101 l90 50 3 229 2 230 -25 37
c-14 20 -25 38 -25 40 0 5 -138 227 -145 234 -3 3 -5 -143 -5 -325z"/>
<path d="M515 1184 c-11 -8 -47 -29 -80 -46 -33 -16 -65 -34 -72 -40 -9 -7
-11 -100 -10 -365 l2 -356 120 -64 c66 -36 158 -84 205 -108 l85 -44 199 0
200 1 -65 35 c-35 19 -127 68 -204 108 -77 41 -185 98 -240 128 l-100 53 -1
354 c0 213 -4 355 -10 357 -5 1 -18 -5 -29 -13z"/>
<path d="M602 603 l3 -107 180 -99 c99 -54 227 -123 285 -154 57 -31 122 -67
144 -79 l40 -23 116 61 c63 34 133 72 155 84 22 13 64 35 93 50 49 25 58 35
139 168 47 77 93 152 102 166 15 23 12 22 -49 -12 -36 -19 -174 -95 -307 -168
l-243 -132 -97 53 c-54 28 -120 64 -148 79 -277 151 -406 220 -410 220 -3 0
-4 -48 -3 -107z"/>
</g>
</svg>
